<svg width="13" height="15" viewBox="0 0 13 15" fill="none" xmlns="http://www.w3.org/2000/svg">
<path d="M8.60896 0H8.29319H1.6616C0.966842 0 0.398438 0.499986 0.398438 1.11111V13.8889C0.398438 14.5 0.966842 15 1.6616 15H11.1353C11.83 15 12.3984 14.5 12.3984 13.8889V4.16668V3.88892L8.60896 0ZM8.60896 0.833348L11.5774 3.88892H9.24054C8.92477 3.88892 8.60896 3.61115 8.60896 3.33336V0.833348ZM11.7669 13.8889C11.7669 14.1667 11.5142 14.4444 11.1353 14.4444H1.6616C1.34582 14.4444 1.03002 14.2222 1.03002 13.8889V1.11111C1.03002 0.833348 0.651069 14.4444 1.03002 14.4444H11.7669L12 3.88892C12 4.50004 8.54582 4.44444 9.24054 4.44444H11.7669V13.8889Z" fill="white"/>
</svg>
