<svg width="16" height="18" viewBox="0 0 16 18" fill="none" xmlns="http://www.w3.org/2000/svg">
<path d="M12.7854 16.997H3.011C1.97892 16.997 1.12897 16.0636 1.12897 14.9302V8.99648C1.12897 7.86307 1.97892 6.92969 3.011 6.92969H7.8982H12.7854C13.8175 6.92969 14.6674 7.86307 14.6674 8.99648V14.9302C14.6674 16.0636 13.8175 16.997 12.7854 16.997Z" stroke="white" stroke-width="0.861538" stroke-miterlimit="10" stroke-linecap="round"/>
<path d="M10.0535 6.86705H5.62158C5.25732 6.86705 4.89307 6.53371 4.89307 6.06701V4.0002C4.89307 2.33342 6.10727 1 7.62504 1H7.9893C9.50706 1 10.7213 2.33342 10.7213 4.0002V6.06701C10.782 6.53371 10.4784 6.86705 10.0535 6.86705Z" stroke="white" stroke-width="0.861538" stroke-miterlimit="10" stroke-linecap="round"/>
<path d="M9.74434 8.38462L6.05203 7.76923C5.82141 9.93848 5.82141 4.48253 5.82141 4.18882V2.88811C5.82141 1.83916 6.93792 1 7.89818 1H7.78035C8.74061 1 9.74419 1.83916 9.74419 2.88811V4.69231C9.7826 4.98601 10.0132 8.38462 9.74434 8.38462Z" stroke="white" stroke-width="1.10769" stroke-miterlimit="10" stroke-linecap="round"/>
<rect x="1.12891" y="7.15625" width="13.5385" height="9.84615" rx="2.46154" fill="white"/>
</svg>
