<svg width="15" height="16" viewBox="0 0 15 16" fill="none" xmlns="http://www.w3.org/2000/svg">
<path d="M8.8567 9.87446C10.0817 8.71701 11.9192 6.94466 11.9192 0.506369V0H2.84837V0.506369C2.84837 6.98083 4.68587 8.71701 5.91087 9.87446C6.61087 10.5617 6.96087 10.9234 6.96087 11.7191V13.2745C6.29003 13.3468 5.64837 13.6723 5.41503 14.2872H4.4817C4.01503 14.2872 3.66503 14.7574 3.66503 15.3H11.0734C11.0734 14.7213 10.6942 14.2872 10.2567 14.2872H9.32337C9.09003 13.6723 8.44837 13.383 7.77753 13.2745V11.7191C7.8067 10.8872 8.1567 10.5255 8.8567 9.87446ZM7.39837 10.1638C7.13587 9.72977 6.78587 9.40424 6.43587 9.07871C5.32753 7.9936 3.7817 6.5468 3.6942 1.01276C-1.29931 2.01843 -0.165778 4.17979 7.39837 10.5C13.4237 5.40912 16.6476 1.4806 11.1025 1.01276C11.015 6.5468 9.49837 7.9936 8.36087 9.07871C8.01087 9.40424 7.66087 9.72977 7.39837 10.1638Z" fill="white"/>
<path d="M4.9515 7.69861L4.81953 8.58237C4.81796 8.58193 4.81634 8.58148 4.8147 8.58102C4.78024 8.57136 4.73086 8.55631 4.66869 8.53495C4.54438 8.49222 4.36936 8.42442 4.16067 8.32443C3.74325 8.12443 3.19172 7.79593 2.64195 7.28235C1.54363 6.25633 0.448438 4.48814 0.448438 1.51809V1.06172H3.23594V1.97448H1.24427H1.19173L1.19433 2.02696C1.31168 4.39183 2.25132 5.80573 3.16861 6.63263C3.62671 7.04559 4.07839 7.31141 4.41752 7.47633C4.58712 7.5588 4.72859 7.61605 4.82863 7.65383C4.87302 7.67059 4.90927 7.68353 4.93586 7.69302C4.93921 7.69422 4.9424 7.69536 4.94544 7.69644C4.94755 7.6972 4.94957 7.69792 4.9515 7.69861Z" fill="white" stroke="#5B6C5E" stroke-width="0.1"/>
<path d="M13.5235 1.93935H11.5318V1.02656H14.3485V1.48295C14.3485 4.47119 13.2532 6.24844 12.1549 7.27893C11.6051 7.79476 11.0536 8.12436 10.6362 8.32491C10.4275 8.42518 10.2525 8.49312 10.1282 8.53591C10.066 8.55731 10.0167 8.57238 9.98222 8.58204C9.98015 8.58262 9.97815 8.58318 9.9762 8.58371L9.81801 7.66825C10.0241 7.60931 10.8293 7.34284 11.6432 6.59722C12.5461 5.77005 13.4561 4.35614 13.5734 1.99182L13.576 1.93935H13.5235Z" fill="white" stroke="#5B6C5E" stroke-width="0.1"/>
</svg>
