<svg width="28" height="32" viewBox="0 0 28 32" fill="none" xmlns="http://www.w3.org/2000/svg">
<path fill-rule="evenodd" clip-rule="evenodd" d="M8.57824 5.88561V10.7461C8.57824 10.7527 8.57824 10.7588 8.57871 10.7654H8.10872C7.84954 10.7654 7.63919 10.9757 7.63919 11.2349V14.2868C7.63919 14.546 7.84954 14.7563 8.10872 14.7563H9.98682C10.246 14.7563 10.4563 14.546 10.4563 14.2868V11.2349C10.4563 10.9757 10.246 10.7654 9.98682 10.7654H9.51682C9.51729 10.7588 9.51729 10.7527 9.51729 10.7461V6.39787L10.9263 7.16648C10.9259 7.17399 10.9259 7.1815 10.9259 7.18902V11.7021C10.9259 12.3514 11.3696 12.9168 12.0001 13.0708L16.9264 14.2732C16.9996 14.2915 17.0762 14.2915 17.1494 14.2732C17.1494 14.2732 20.5446 13.4421 22.0602 13.0708C22.6903 12.9168 23.1335 12.3514 23.1335 11.7026C23.1335 10.2574 23.1335 7.18902 23.1335 7.18902C23.1335 7.17822 23.1331 7.16742 23.1326 7.15662L25.9408 5.62503C26.0915 5.54239 26.1854 5.38463 26.1854 5.21278C26.1854 5.04094 26.0915 4.88271 25.9408 4.80054L17.2452 0.0573994C17.1048 -0.0191331 16.9358 -0.0191331 16.7954 0.0573994L8.0998 4.80054C7.94908 4.88271 7.85518 5.04094 7.85518 5.21278C7.85518 5.38463 7.94908 5.54239 8.0998 5.62503L8.57824 5.88561ZM10.1662 4.74326L11.7359 5.88561C11.9688 6.05511 11.7792 5.9171 12.2232 6.24022C12.2232 6.38692 12.2232 6.17978 13.0671 6.85438L15.6066 8.70246L16.7954 9.56763L18.2627 8.74314C18.4904 8.61919 18.7759 8.70323 18.8998 8.93048C19.0238 9.1582 19.1271 9.02803 18.8998 9.15198L17.2452 10.3677C17.1048 10.4442 16.4773 10.3677 16.7954 10.3677L11.8649 7.67873V11.7021C11.8649 11.9185 12.0128 12.1068 12.2232 12.1585L22.1945 7.6684L21.8367 12.1589C21.8367 12.3754 22.0466 12.1073 21.8367 12.1589L22.1945 7.6684L20.1248 8.79714C19.8971 8.92156 19.6116 8.83752 19.4877 8.6098C19.3637 8.38255 19.4473 8.09708 19.675 7.97312L24.7355 5.21278L16.7954 9.56763L10.1662 4.74326Z" fill="white"/>
<path d="M12.6234 7.12834C13.9116 5.73335 12.6234 7.0701 12.8973 7.36157C13.1162 7.504 13.3667 7.57735 13.6079 7.66668C13.7248 7.70998 12.2509 10.4533 13.9116 7.93925C14.1013 8.12892 14.1757 8.43107 14.4242 8.53048C14.4532 8.54205 14.4783 8.75453 14.4839 8.78813C14.5216 9.0142 14.5029 9.2513 14.5029 9.47971C14.5029 9.64366 14.531 9.83548 14.5015 9.99771C14.4954 10.0312 14.4902 10.1505 14.473 10.174C14.4517 10.2034 14.469 10.2462 14.4486 10.2716C14.4122 10.3172 14.372 10.333 14.3198 10.3611C14.2708 10.3875 14.0888 10.4018 14.069 10.4533C14.0459 10.5133 14.0632 10.5998 14.0879 10.6554C14.1362 10.7641 14.1612 10.7804 14.1612 10.9117C14.1612 10.9467 12.392 11.265 14.1747 10.993C14.2727 10.9781 14.3551 10.9262 14.4391 10.8778C14.5433 10.8178 14.667 10.7933 14.7768 10.7435C15.0931 10.6003 15.5231 10.5322 15.783 10.2798C16.0094 10.0599 16.2955 9.88629 16.5654 9.71837C16.7661 9.59348 16.9744 9.53643 17.2014 9.47157C17.3729 9.42258 17.5599 9.33238 17.7248 9.26003C17.9734 9.15096 18.2282 9.06128 18.4693 8.93729C18.6535 8.84255 18.8968 8.83468 19.0971 8.80304C19.2558 8.77799 19.4084 8.76149 19.569 8.76372C19.737 8.76605 19.8694 8.83582 20.0192 8.88576" stroke="white" stroke-width="3.53525" stroke-linecap="round"/>
</svg>
