<svg width="11" height="11" viewBox="0 0 11 11" fill="none" xmlns="http://www.w3.org/2000/svg">
<path d="M10.4997 10.356C10.4997 10.4354 10.4353 10.4997 10.3559 10.4997H9.64349C9.56407 10.4997 9.49969 10.5641 9.49969 10.6435V10.856C9.49969 10.9354 9.56407 10.9997 9.64349 10.9997H10.8559C10.9353 10.9997 10.9997 10.9354 10.9997 10.856V9.64355C10.9997 9.56413 10.9353 9.49976 10.8559 9.49976H10.6435C10.5641 9.49976 10.4997 9.56413 10.4997 9.64355V10.356Z" fill="#91959E"/>
<path d="M10.9997 0.143791C10.9997 0.0643774 10.9353 0 10.8559 0H9.64349C9.56407 0 9.49969 0.0643774 9.49969 0.143791V0.356206C9.49969 0.43562 9.56407 0.499997 9.64349 0.499997H10.3559C10.4353 0.499997 10.4997 0.564374 10.4997 0.643788V1.35622C10.4997 1.43563 10.5641 1.50001 10.6435 1.50001H10.8559C10.9353 1.50001 10.9997 1.43563 10.9997 1.35622V0.143791Z" fill="#91959E"/>
<path d="M0 10.856C0 10.9354 0.0643774 10.9997 0.143791 10.9997H1.35622C1.43563 10.9997 1.50001 10.9354 1.50001 10.856V10.6435C1.50001 10.5641 1.43563 10.4997 1.35622 10.4997H0.643788C0.564374 10.4997 0.499997 10.4354 0.499997 10.356V9.64355C0.499997 9.56413 0.435619 9.49976 0.356206 9.49976H0.143791C0.0643772 9.49976 0 9.56413 0 9.64355V10.856Z" fill="#91959E"/>
<path d="M0 1.35622C0 1.43563 0.0643774 1.50001 0.143791 1.50001H0.356206C0.43562 1.50001 0.499997 1.43563 0.499997 1.35622V0.643788C0.499997 0.564374 0.564374 0.499997 0.643788 0.499997H1.35622C1.43563 0.499997 1.50001 0.435619 1.50001 0.356206V0.143791C1.50001 0.0643772 1.43563 0 1.35622 0H0.143791C0.0643774 0 0 0.0643774 0 0.143791V1.35622Z" fill="#91959E"/>
<rect x="2.25" y="1.25" width="6.5" height="8.5" rx="0.75" stroke="#91959E" stroke-width="0.5"/>
</svg>
