<svg width="53" height="33" viewBox="0 0 53 33" fill="none" xmlns="http://www.w3.org/2000/svg">
<path d="M50.7812 4.0625H2.03125C1.49253 4.0625 0.975873 3.84849 0.594939 3.46756C0.214006 3.08663 0 2.56997 0 2.03125C0 1.49253 0.214006 0.975873 0.594939 0.59494C0.975873 0.214006 1.49253 0 2.03125 0H50.7812C51.32 0 51.8366 0.214006 52.2176 0.59494C52.5985 0.975873 52.8125 1.49253 52.8125 2.03125C52.8125 2.56997 52.5985 3.08663 52.2176 3.46756C51.8366 3.84849 51.32 4.0625 50.7812 4.0625Z" fill="#3D3D3D"/>
<path d="M50.7812 18.2812H2.03125C1.49253 18.2812 0.975873 18.0672 0.594939 17.6863C0.214006 17.3054 0 16.7887 0 16.25C0 15.7113 0.214006 15.1946 0.594939 14.8137C0.975873 14.4328 1.49253 14.2188 2.03125 14.2188H50.7812C51.32 14.2188 51.8366 14.4328 52.2176 14.8137C52.5985 15.1946 52.8125 15.7113 52.8125 16.25C52.8125 16.7887 52.5985 17.3054 52.2176 17.6863C51.8366 18.0672 51.32 18.2812 50.7812 18.2812Z" fill="#3D3D3D"/>
<path d="M50.7812 32.5H2.03125C1.49253 32.5 0.975873 32.286 0.594939 31.9051C0.214006 31.5241 0 31.0075 0 30.4688C0 29.93 0.214006 29.4134 0.594939 29.0324C0.975873 28.6515 1.49253 28.4375 2.03125 28.4375H50.7812C51.32 28.4375 51.8366 28.6515 52.2176 29.0324C52.5985 29.4134 52.8125 29.93 52.8125 30.4688C52.8125 31.0075 52.5985 31.5241 52.2176 31.9051C51.8366 32.286 51.32 32.5 50.7812 32.5Z" fill="#3D3D3D"/>
</svg>
