<svg width="9" height="11" viewBox="0 0 9 11" fill="none" xmlns="http://www.w3.org/2000/svg">
<path d="M3.45 6.815V9.335H8.55V11H0.525V9.335H1.725V6.815H0.75V5.3H1.725V3.53C1.725 2.49 2.045 1.695 2.685 1.145C3.335 0.584999 4.09 0.304999 4.95 0.304999C5.69 0.304999 6.33 0.489999 6.87 0.859999C7.41 1.23 7.815 1.75 8.085 2.42L6.615 3.26C6.335 2.41 5.795 1.985 4.995 1.985C4.535 1.985 4.16 2.125 3.87 2.405C3.59 2.675 3.45 3.07 3.45 3.59V5.3H6.645V6.815H3.45Z" fill="#91959E"/>
<path d="M3.45 6.815V6.515H3.15V6.815H3.45ZM3.45 9.335H3.15V9.635H3.45V9.335ZM8.55 9.335H8.85V9.035H8.55V9.335ZM8.55 11V11.3H8.85V11H8.55ZM0.525 11H0.225V11.3H0.525V11ZM0.525 9.335V9.035H0.225V9.335H0.525ZM1.725 9.335V9.635H2.025V9.335H1.725ZM1.725 6.815H2.025V6.515H1.725V6.815ZM0.75 6.815H0.45V7.115H0.75V6.815ZM0.75 5.3V5H0.45V5.3H0.75ZM1.725 5.3V5.6H2.025V5.3H1.725ZM2.685 1.145L2.88053 1.37253L2.88081 1.37228L2.685 1.145ZM6.87 0.859999L7.03957 0.612519L6.87 0.859999ZM8.085 2.42L8.23384 2.68047L8.46108 2.55062L8.36326 2.30787L8.085 2.42ZM6.615 3.26L6.33006 3.35386L6.44497 3.70269L6.76384 3.52047L6.615 3.26ZM3.87 2.405L4.07824 2.62095L4.07838 2.62082L3.87 2.405ZM3.45 5.3H3.15V5.6H3.45V5.3ZM6.645 5.3H6.945V5H6.645V5.3ZM6.645 6.815V7.115H6.945V6.815H6.645ZM3.15 6.815V9.335H3.75V6.815H3.15ZM3.45 9.635H8.55V9.035H3.45V9.635ZM8.25 9.335V11H8.85V9.335H8.25ZM8.55 10.7H0.525V11.3H8.55V10.7ZM0.825 11V9.335H0.225V11H0.825ZM0.525 9.635H1.725V9.035H0.525V9.635ZM2.025 9.335V6.815H1.425V9.335H2.025ZM1.725 6.515H0.75V7.115H1.725V6.515ZM1.05 6.815V5.3H0.45V6.815H1.05ZM0.75 5.6H1.725V5H0.75V5.6ZM2.025 5.3V3.53H1.425V5.3H2.025ZM2.025 3.53C2.025 2.55533 2.32196 1.85255 2.88053 1.37253L2.48947 0.917474C1.76804 1.53745 1.425 2.42467 1.425 3.53H2.025ZM2.88081 1.37228C3.47622 0.859318 4.16169 0.604999 4.95 0.604999V0.00499916C4.01831 0.00499916 3.19378 0.310681 2.48919 0.917717L2.88081 1.37228ZM4.95 0.604999C5.63766 0.604999 6.21671 0.776042 6.70043 1.10748L7.03957 0.612519C6.44329 0.203957 5.74234 0.00499916 4.95 0.00499916V0.604999ZM6.70043 1.10748C7.18666 1.44063 7.55646 1.91107 7.80675 2.53213L8.36326 2.30787C8.07354 1.58893 7.63334 1.01936 7.03957 0.612519L6.70043 1.10748ZM7.93616 2.15953L6.46616 2.99953L6.76384 3.52047L8.23384 2.68047L7.93616 2.15953ZM6.89994 3.16614C6.74699 2.70183 6.51404 2.32655 6.18554 2.06801C5.85425 1.80727 5.45076 1.685 4.995 1.685V2.285C5.33924 2.285 5.60575 2.37523 5.81446 2.53949C6.02596 2.70595 6.20301 2.96817 6.33006 3.35386L6.89994 3.16614ZM4.995 1.685C4.46912 1.685 4.01554 1.84747 3.66162 2.18918L4.07838 2.62082C4.30446 2.40253 4.60088 2.285 4.995 2.285V1.685ZM3.66176 2.18905C3.30537 2.5327 3.15 3.01703 3.15 3.59H3.75C3.75 3.12297 3.87463 2.8173 4.07824 2.62095L3.66176 2.18905ZM3.15 3.59V5.3H3.75V3.59H3.15ZM3.45 5.6H6.645V5H3.45V5.6ZM6.345 5.3V6.815H6.945V5.3H6.345ZM6.645 6.515H3.45V7.115H6.645V6.515Z" fill="#F8F8F8"/>
</svg>
