<svg width="13" height="12" viewBox="0 0 13 12" fill="none" xmlns="http://www.w3.org/2000/svg">
<path d="M5.2 7.1H5.1V7.2V9C5.1 9.12991 5.04417 9.25628 4.94179 9.35078C4.83915 9.44553 4.69834 9.5 4.55 9.5C4.40166 9.5 4.26085 9.44553 4.15821 9.35078C4.05583 9.25628 4 9.12991 4 9V3C4 2.87009 4.05583 2.74372 4.15821 2.64922C4.26085 2.55447 4.40166 2.5 4.55 2.5H6.5C7.16551 2.5 7.80231 2.74411 8.27065 3.17642C8.73872 3.60849 9 4.1927 9 4.8C9 5.4073 8.73872 5.99151 8.27065 6.42358C7.80231 6.85589 7.16551 7.1 6.5 7.1H5.2ZM5.2 3.5H5.1V3.6V6V6.1H5.2H6.5C6.86883 6.1 7.22401 5.96483 7.48707 5.72201C7.75039 5.47894 7.9 5.14748 7.9 4.8C7.9 4.45252 7.75039 4.12106 7.48707 3.87799C7.22401 3.63517 6.86883 3.5 6.5 3.5H5.2ZM11.05 11.9H1.95C1.45688 11.9 0.985411 11.7191 0.63897 11.3993C0.292798 11.0798 0.1 10.6482 0.1 10.2V1.8C0.1 1.35183 0.292798 0.920232 0.63897 0.600688C0.985411 0.280896 1.45688 0.1 1.95 0.1H11.05C11.5431 0.1 12.0146 0.280896 12.361 0.600688C12.7072 0.920232 12.9 1.35183 12.9 1.8V10.2C12.9 10.6482 12.7072 11.0798 12.361 11.3993C12.0146 11.7191 11.5431 11.9 11.05 11.9ZM1.42255 1.30226C1.28113 1.4328 1.2 1.61165 1.2 1.8V10.2C1.2 10.3884 1.28113 10.5672 1.42255 10.6977C1.56371 10.828 1.75356 10.9 1.95 10.9H11.05C11.2464 10.9 11.4363 10.828 11.5774 10.6977C11.7189 10.5672 11.8 10.3884 11.8 10.2V1.8C11.8 1.61165 11.7189 1.4328 11.5774 1.30226C11.4363 1.17196 11.2464 1.1 11.05 1.1H1.95C1.75356 1.1 1.56371 1.17196 1.42255 1.30226Z" fill="#91959E" stroke="#F8F8F8" stroke-width="0.2"/>
</svg>
