<svg width="19" height="16" viewBox="0 0 19 16" fill="none" xmlns="http://www.w3.org/2000/svg">
<path d="M7.72418 11.6173C7.61975 11.617 7.51651 11.599 7.42087 11.5645C7.32523 11.53 7.23923 11.4796 7.16822 11.4165L3.46688 8.17354C3.32852 8.0521 3.2544 7.89036 3.26082 7.7239C3.26401 7.64148 3.28687 7.56039 3.3281 7.48524C3.36934 7.4101 3.42814 7.34238 3.50115 7.28595C3.57416 7.22953 3.65995 7.1855 3.75362 7.15638C3.84729 7.12726 3.947 7.11362 4.04707 7.11624C4.24917 7.12154 4.44044 7.19274 4.5788 7.31418L7.71657 10.0679L14.1216 4.29701C14.1866 4.23034 14.2674 4.17533 14.3592 4.13534C14.4509 4.09535 14.5516 4.07123 14.6551 4.06447C14.7586 4.0577 14.8627 4.06843 14.9609 4.096C15.0592 4.12357 15.1496 4.16739 15.2265 4.22478C15.3035 4.28216 15.3654 4.3519 15.4084 4.4297C15.4515 4.50751 15.4747 4.59174 15.4768 4.67722C15.4789 4.7627 15.4597 4.84763 15.4205 4.9268C15.3813 5.00596 15.3228 5.07768 15.2487 5.13755L8.28776 11.4103C8.21742 11.4745 8.13172 11.526 8.03605 11.5616C7.94037 11.5972 7.83679 11.6162 7.7318 11.6173H7.72418Z" fill="#9AC485"/>
</svg>
