<svg width="10" height="10" viewBox="0 0 10 10" fill="none" xmlns="http://www.w3.org/2000/svg">
<path d="M4.10855 6.91366C4.05142 6.91349 3.99494 6.90249 3.94261 6.88135C3.89029 6.86021 3.84324 6.82937 3.80439 6.79076L1.77939 4.80516C1.70369 4.73081 1.66314 4.63178 1.66665 4.52986C1.66839 4.4794 1.6809 4.42974 1.70346 4.38374C1.72602 4.33773 1.75819 4.29627 1.79814 4.26172C1.83808 4.22717 1.88501 4.20021 1.93626 4.18238C1.98751 4.16455 2.04206 4.1562 2.09681 4.15781C2.20738 4.16105 2.31202 4.20464 2.38772 4.279L4.10439 5.96503L7.60855 2.43167C7.64411 2.39085 7.68835 2.35717 7.73855 2.33268C7.78875 2.3082 7.84385 2.29343 7.90046 2.28929C7.95708 2.28515 8.01402 2.29172 8.06778 2.3086C8.12154 2.32548 8.17099 2.35231 8.21309 2.38744C8.25519 2.42258 8.28905 2.46528 8.3126 2.51291C8.33615 2.56055 8.34888 2.61212 8.35001 2.66446C8.35115 2.7168 8.34067 2.7688 8.31921 2.81727C8.29774 2.86574 8.26576 2.90965 8.22522 2.94631L4.41689 6.78692C4.3784 6.82623 4.33152 6.85778 4.27917 6.87959C4.22683 6.9014 4.17016 6.913 4.11272 6.91366H4.10855Z" fill="#9AC485"/>
</svg>
