<svg width="12" height="17" viewBox="0 0 12 17" fill="none" xmlns="http://www.w3.org/2000/svg">
<path d="M6.03756 0C3.94214 0 2.21484 1.69898 2.21484 3.82271C2.21484 5.91813 3.91383 7.64543 6.03756 7.64543C8.16129 7.64543 9.86027 5.94644 9.86027 3.82271C9.86027 1.69898 8.13297 0 6.03756 0ZM6.03756 5.09695C5.32965 5.09695 4.76332 4.53062 4.76332 3.82271C4.76332 3.1148 5.32965 2.54848 6.03756 2.54848C6.74547 2.54848 7.3118 3.1148 7.3118 3.82271C7.3118 4.53062 6.74547 5.09695 6.03756 5.09695Z" fill="#3D3D3D"/>
<path d="M10.7356 10.2191C9.77288 10.7571 8.72518 11.1252 7.67747 11.2951L10.6507 14.948C10.9905 15.3727 11.0754 15.9674 10.764 16.4204C10.2826 17.1566 9.26319 17.185 8.75349 16.5337L6.0068 13.164L3.28843 16.5337C3.03358 16.8452 2.69378 16.9867 2.32567 16.9867C1.95756 16.9867 1.58944 16.8168 1.3346 16.477C1.02312 16.0523 1.05143 15.3444 1.39123 14.9196L4.33614 11.2385C3.28843 11.0403 2.24072 10.7005 1.30628 10.1625C0.711637 9.8227 0.513422 9.08647 0.853218 8.46351C1.19302 7.86886 1.95756 7.67065 2.5522 8.01045C4.70425 9.22805 7.39431 9.22805 9.57467 8.03876C10.1693 7.69896 10.9339 7.9255 11.2453 8.52014C11.5568 9.1431 11.3303 9.87933 10.7356 10.2191Z" fill="#3D3D3D"/>
</svg>
