<svg width="18" height="18" viewBox="0 0 18 18" fill="none" xmlns="http://www.w3.org/2000/svg">
<path d="M17.434 8.72334C17.434 9.94678 17.4094 11.1737 17.441 12.3972C17.4937 14.5628 16.1332 16.2362 14.4 16.9815C13.7039 17.2804 12.9727 17.4386 12.2168 17.4386C9.85078 17.4421 7.48125 17.4737 5.11523 17.428C3.33281 17.3929 1.8668 16.6476 0.815625 15.178C0.263672 14.4046 0 13.5257 0 12.573C0 10.0522 0 7.53506 0 5.01436C0 2.95772 1.00195 1.51983 2.78086 0.58467C3.5543 0.180373 4.39453 0.00810747 5.26992 0.00459184C7.56562 0.00459184 9.86484 -0.00947067 12.1605 0.0116231C13.943 0.0256856 15.4301 0.707717 16.527 2.14209C17.1387 2.94365 17.434 3.86475 17.434 4.87725C17.434 6.15694 17.434 7.44014 17.434 8.72334ZM1.29727 8.72334C1.29727 10.0136 1.29727 11.3003 1.29727 12.5905C1.29727 13.1671 1.43086 13.7085 1.72969 14.1972C2.51367 15.4804 3.69844 16.1062 5.16797 16.1308C7.52695 16.1659 9.88945 16.1448 12.252 16.1378C12.832 16.1378 13.3945 16.0183 13.9184 15.7687C15.3457 15.0866 16.1437 14.0003 16.1367 12.369C16.1227 9.87295 16.1332 7.37686 16.1332 4.88076C16.1332 4.17412 15.9328 3.52725 15.5145 2.95772C14.7059 1.86436 13.5879 1.32647 12.252 1.3124C9.89648 1.28428 7.54101 1.30186 5.18555 1.30537C4.68281 1.30537 4.19766 1.40733 3.72656 1.58311C2.43281 2.06475 1.23047 3.28467 1.28672 5.08115C1.32891 6.29756 1.29727 7.51045 1.29727 8.72334Z" fill="#3D3D3D"/>
<path d="M9.58156 13.9921C9.52867 13.994 9.49482 13.998 9.46097 13.998C8.73747 13.998 8.01608 13.996 7.29258 14C7.19103 14 7.16353 13.9742 7.16353 13.8789C7.16565 12.2993 7.16565 10.7176 7.16565 9.13793C7.16565 9.09625 7.16565 9.05458 7.16565 9.001C6.77216 9.001 6.38925 9.001 6 9.001C6 8.43739 6 7.88371 6 7.31415C6.04019 7.31415 6.07827 7.31415 6.11424 7.31415C6.43156 7.31415 6.74889 7.31217 7.06622 7.31614C7.14661 7.31614 7.16776 7.29431 7.16776 7.22088C7.16353 6.77833 7.16353 6.3338 7.16776 5.89125C7.16988 5.58167 7.22276 5.28002 7.37508 5.0002C7.59298 4.60528 7.93781 4.34928 8.3736 4.19052C8.72901 4.05954 9.10345 4.01191 9.48001 4.00596C10.0935 3.99802 10.707 4.00199 11.3205 4C11.3776 4 11.4242 3.99802 11.4242 4.07343C11.422 4.61918 11.422 5.16492 11.422 5.71066C11.422 5.71661 11.4199 5.72257 11.4115 5.74837C11.3755 5.74837 11.3353 5.74837 11.2951 5.74837C10.9143 5.74837 10.5335 5.74638 10.1527 5.74837C9.93273 5.74837 9.75503 5.83172 9.64291 6.01231C9.60906 6.06589 9.5879 6.13535 9.5879 6.19885C9.58156 6.53622 9.5879 6.87359 9.58367 7.21096C9.58367 7.29034 9.60906 7.31217 9.69156 7.31217C10.2204 7.3082 10.7493 7.31018 11.2782 7.31018C11.3205 7.31018 11.3607 7.31018 11.4326 7.31018C11.3586 7.87776 11.2867 8.43342 11.2126 8.99504C10.6626 8.99504 10.1274 8.99504 9.58156 8.99504C9.58156 10.664 9.58156 12.3231 9.58156 13.9921Z" fill="#3D3D3D"/>
</svg>
