<svg width="18" height="18" viewBox="0 0 18 18" fill="none" xmlns="http://www.w3.org/2000/svg">
<path d="M17.7543 9.03584C17.7543 10.2593 17.7297 11.4862 17.7613 12.7097C17.8141 14.8753 16.4535 16.5487 14.7203 17.294C14.0242 17.5929 13.293 17.7511 12.5371 17.7511C10.1711 17.7546 7.80156 17.7862 5.43555 17.7405C3.65312 17.7054 2.18711 16.9601 1.13594 15.4905C0.583984 14.7171 0.320312 13.8382 0.320312 12.8855C0.320312 10.3647 0.320312 7.84756 0.320312 5.32686C0.320312 3.27022 1.32227 1.83233 3.10117 0.89717C3.87461 0.492873 4.71484 0.320607 5.59023 0.317092C7.88594 0.317092 10.1852 0.303029 12.4809 0.324123C14.2633 0.338186 15.7504 1.02022 16.8473 2.45459C17.459 3.25615 17.7543 4.17725 17.7543 5.18975C17.7543 6.46944 17.7543 7.75264 17.7543 9.03584ZM1.61758 9.03584C1.61758 10.3261 1.61758 11.6128 1.61758 12.903C1.61758 13.4796 1.75117 14.021 2.05 14.5097C2.83398 15.7929 4.01875 16.4187 5.48828 16.4433C7.84726 16.4784 10.2098 16.4573 12.5723 16.4503C13.1523 16.4503 13.7148 16.3308 14.2387 16.0812C15.666 15.3991 16.4641 14.3128 16.457 12.6815C16.443 10.1855 16.4535 7.68936 16.4535 5.19326C16.4535 4.48662 16.2531 3.83975 15.8348 3.27022C15.0262 2.17686 13.9082 1.63897 12.5723 1.6249C10.2168 1.59678 7.86133 1.61436 5.50586 1.61787C5.00312 1.61787 4.51797 1.71983 4.04687 1.89561C2.75312 2.37725 1.55078 3.59717 1.60703 5.39365C1.64922 6.61006 1.61758 7.82295 1.61758 9.03584Z" fill="#353D4E"/>
<path d="M9.05674 12.7617C6.78917 12.7617 4.96104 10.9547 4.95752 8.70469C4.95401 6.48985 6.7962 4.67579 9.04971 4.67579C11.3103 4.67227 13.1454 6.48282 13.1489 8.71524C13.1489 10.9441 11.3173 12.7582 9.05674 12.7617ZM9.05674 11.4609C10.6001 11.4609 11.8517 10.227 11.8481 8.70821C11.8446 7.20352 10.5931 5.97305 9.05674 5.97305C7.51338 5.97305 6.25479 7.2 6.25479 8.71524C6.25831 10.234 7.51338 11.4645 9.05674 11.4609Z" fill="#353D4E"/>
<path d="M13.6235 3.44531C14.0981 3.44531 14.4848 3.84961 14.4848 4.34531C14.4813 4.84102 14.091 5.2418 13.6164 5.23828C13.1489 5.23477 12.7656 4.83398 12.7656 4.34883C12.7621 3.85312 13.1489 3.44531 13.6235 3.44531Z" fill="#353D4E"/>
</svg>
