<svg width="32" height="31" viewBox="0 0 32 31" fill="none" xmlns="http://www.w3.org/2000/svg">
<path d="M28.658 24.0067L28.602 29.4467C28.596 30.0317 28.12 30.5017 27.536 30.5017C27.532 30.5017 27.528 30.5017 27.525 30.5017C26.936 30.4957 26.463 30.0127 26.469 29.4237L26.497 26.7587C24.095 29.3477 20.735 30.8627 17.133 30.8627C12.789 30.8627 8.777 28.6877 6.403 25.0437C6.082 24.5507 6.221 23.8897 6.715 23.5677C7.209 23.2457 7.869 23.3847 8.191 23.8787C10.17 26.9167 13.513 28.7307 17.134 28.7307C20.264 28.7307 23.184 27.3697 25.197 25.0387L22.142 25.0087C21.553 25.0027 21.08 24.5197 21.086 23.9307C21.092 23.3417 21.568 22.9057 22.164 22.8747L27.603 22.9307C28.19 22.9347 28.663 23.4177 28.658 24.0067ZM30.485 9.5697C28.787 6.3917 25.869 4.1427 22.454 3.2437L24.817 2.0127C25.34 1.7407 25.542 1.0957 25.271 0.573703C25.269 0.570703 25.267 0.566703 25.265 0.564703C24.99 0.0487029 24.351 -0.149297 23.831 0.120703L19.008 2.6337C18.486 2.9067 18.283 3.5507 18.555 4.0737L21.069 8.8977C21.376 9.4077 21.986 9.6217 22.508 9.3507C23.03 9.0787 23.233 8.4337 22.961 7.9127L21.549 5.2027C24.553 5.8807 27.128 7.8157 28.603 10.5767C30.309 13.7707 30.284 17.5747 28.538 20.7507C28.254 21.2667 28.442 21.9147 28.959 22.1997C29.476 22.4827 30.124 22.2947 30.408 21.7787C32.502 17.9647 32.532 13.4017 30.485 9.5697ZM6.666 21.8757L9.436 17.1937C9.707 16.6627 9.568 16.0327 9.062 15.7317C8.554 15.4327 7.9 15.6007 7.6 16.1077L6.044 18.7357C5.034 15.8257 5.317 12.6187 6.883 9.9077C8.696 6.7737 11.939 4.7857 15.558 4.5927C16.146 4.5617 16.598 4.0587 16.566 3.4707C16.535 2.8827 16.032 2.4307 15.444 2.4627C11.103 2.6957 7.211 5.0797 5.037 8.8417C3.234 11.9607 2.864 15.6267 3.904 19.0017L1.61 17.6437C1.103 17.3447 0.449003 17.5117 0.149003 18.0187C0.148003 18.0217 0.146003 18.0247 0.143003 18.0287C-0.148997 18.5347 0.0200031 19.1817 0.524003 19.4807L5.205 22.2507C5.712 22.5507 6.366 22.3827 6.666 21.8757Z" fill="#DDAD7D"/>
</svg>
