<svg width="11" height="11" viewBox="0 0 11 11" fill="none" xmlns="http://www.w3.org/2000/svg">
<path d="M2.96154 5.13333H2.53846V5.86667H2.96154V5.13333ZM8.03846 5.86667H8.46154V5.13333H8.03846V5.86667ZM6.34615 7.33333H5.92308V8.06667H6.34615V7.33333ZM8.03846 8.06667H8.46154V7.33333H8.03846V8.06667ZM2.96154 2.93333H2.53846V3.66667H2.96154V2.93333ZM4.65385 3.66667H5.07692V2.93333H4.65385V3.66667ZM8.03846 0.366667L8.33766 0.107394L8.2137 0H8.03846V0.366667ZM10.5769 2.56667H11V2.41479L10.8761 2.3074L10.5769 2.56667ZM2.96154 5.86667H8.03846V5.13333H2.96154V5.86667ZM6.34615 8.06667H8.03846V7.33333H6.34615V8.06667ZM2.96154 3.66667H4.65385V2.93333H2.96154V3.66667ZM9.73077 10.2667H1.26923V11H9.73077V10.2667ZM0.846154 9.9V1.1H0V9.9H0.846154ZM1.26923 0.733333H8.03846V0H1.26923V0.733333ZM10.1538 2.56667V9.9H11V2.56667H10.1538ZM7.73926 0.625939L10.2777 2.82594L10.8761 2.3074L8.33766 0.107394L7.73926 0.625939ZM1.26923 10.2667C1.03557 10.2667 0.846154 10.1025 0.846154 9.9H0C0 10.5075 0.568252 11 1.26923 11V10.2667ZM9.73077 11C10.4317 11 11 10.5075 11 9.9H10.1538C10.1538 10.1025 9.96439 10.2667 9.73077 10.2667V11ZM0.846154 1.1C0.846154 0.897497 1.03557 0.733333 1.26923 0.733333V0C0.568252 0 0 0.492488 0 1.1H0.846154Z" fill="#91959E"/>
</svg>
