<svg width="284" height="2214" viewBox="0 0 284 2214" fill="none" xmlns="http://www.w3.org/2000/svg">
<path d="M257.999 2213.5H24.499C11.2442 2213.5 0.499023 2202.75 0.499023 2189.5V1834.5C0.499023 1821.25 11.2442 1810.5 24.499 1810.5H258.999C272.254 1810.5 282.999 1799.75 282.999 1786.5V1433C282.999 1419.75 272.254 1409 258.999 1409H24.499C11.2442 1409 0.499023 1398.25 0.499023 1385V1097.5C0.499023 1084.25 11.2442 1073.5 24.499 1073.5H258.999C272.254 1073.5 282.999 1062.75 282.999 1049.5V760.5C282.999 747.245 272.254 736.5 258.999 736.5H24.499C11.2442 736.5 0.499023 725.755 0.499023 712.5V493.5C0.499023 480.245 11.2442 469.5 24.499 469.5H258.999C272.254 469.5 282.999 458.755 282.999 445.5V252.5C282.999 239.245 272.254 228.5 258.999 228.5H24.499C11.2442 228.5 0.499023 217.755 0.499023 204.5V20.5C0.499023 9.45431 9.45333 0.5 20.499 0.5V0.5" stroke="#636363" stroke-linecap="round" stroke-linejoin="round" stroke-dasharray="4 4"/>
</svg>
