<svg width="502" height="2720" viewBox="0 0 502 2720" fill="none" xmlns="http://www.w3.org/2000/svg">
<path d="M49.4977 0.5H25.4977C12.2428 0.5 1.49768 11.2452 1.49768 24.5V285C1.49768 298.255 12.2428 309 25.4977 309H477.498C490.753 309 501.498 319.745 501.498 333V590.5C501.498 603.755 490.753 614.5 477.498 614.5H25.4977C12.2428 614.5 1.49768 625.245 1.49768 638.5V944C1.49768 957.255 12.2428 968 25.4977 968H477.498C490.753 968 501.498 978.745 501.498 992V1432C501.498 1445.25 490.753 1456 477.498 1456H25.4977C12.2428 1456 1.49768 1466.75 1.49768 1480V1813.5C1.49768 1826.75 12.2428 1837.5 25.4977 1837.5H477.498C490.753 1837.5 501.498 1848.25 501.498 1861.5V2226.78C501.498 2240.12 490.62 2250.9 477.282 2250.78L25.7137 2246.72C12.375 2246.6 1.49768 2257.38 1.49768 2270.72V2695C1.49768 2708.25 12.2428 2719 25.4977 2719H421.998" stroke="#636363" stroke-linecap="round" stroke-linejoin="round" stroke-dasharray="4 4"/>
</svg>
