<svg width="61" height="63" viewBox="0 0 61 63" fill="none" xmlns="http://www.w3.org/2000/svg">
<g filter="url(#filter0_i_305_5451)">
<rect x="24" width="33" height="33" rx="4" fill="#F6F6F6"/>
</g>
<rect x="24.5" y="0.5" width="32" height="32" rx="3.5" stroke="#3D3D3D" stroke-opacity="0.15"/>
<path d="M49.434 16.7233C49.434 17.9468 49.4094 19.1737 49.441 20.3972C49.4937 22.5628 48.1332 24.2362 46.4 24.9815C45.7039 25.2804 44.9727 25.4386 44.2168 25.4386C41.8508 25.4421 39.4812 25.4737 37.1152 25.428C35.3328 25.3929 33.8668 24.6476 32.8156 23.178C32.2637 22.4046 32 21.5257 32 20.573C32 18.0522 32 15.5351 32 13.0144C32 10.9577 33.002 9.51983 34.7809 8.58467C35.5543 8.18037 36.3945 8.00811 37.2699 8.00459C39.5656 8.00459 41.8648 7.99053 44.1605 8.01162C45.943 8.02569 47.4301 8.70772 48.527 10.1421C49.1387 10.9437 49.434 11.8647 49.434 12.8772C49.434 14.1569 49.434 15.4401 49.434 16.7233ZM33.2973 16.7233C33.2973 18.0136 33.2973 19.3003 33.2973 20.5905C33.2973 21.1671 33.4309 21.7085 33.7297 22.1972C34.5137 23.4804 35.6984 24.1062 37.168 24.1308C39.527 24.1659 41.8895 24.1448 44.252 24.1378C44.832 24.1378 45.3945 24.0183 45.9184 23.7687C47.3457 23.0866 48.1437 22.0003 48.1367 20.369C48.1227 17.873 48.1332 15.3769 48.1332 12.8808C48.1332 12.1741 47.9328 11.5272 47.5145 10.9577C46.7059 9.86436 45.5879 9.32647 44.252 9.3124C41.8965 9.28428 39.541 9.30186 37.1855 9.30537C36.6828 9.30537 36.1977 9.40733 35.7266 9.58311C34.4328 10.0647 33.2305 11.2847 33.2867 13.0812C33.3289 14.2976 33.2973 15.5105 33.2973 16.7233Z" fill="#353D4E"/>
<path d="M40.7364 20.4492C38.4689 20.4492 36.6407 18.6422 36.6372 16.3922C36.6337 14.1773 38.4759 12.3633 40.7294 12.3633C42.9899 12.3598 44.8251 14.1703 44.8286 16.4027C44.8286 18.6316 42.997 20.4457 40.7364 20.4492ZM40.7364 19.1484C42.2798 19.1484 43.5314 17.9145 43.5278 16.3957C43.5243 14.891 42.2728 13.6606 40.7364 13.6606C39.1931 13.6606 37.9345 14.8875 37.9345 16.4027C37.938 17.9215 39.1931 19.152 40.7364 19.1484Z" fill="#353D4E"/>
<path d="M45.3031 11.1328C45.7778 11.1328 46.1645 11.5371 46.1645 12.0328C46.161 12.5285 45.7707 12.9293 45.2961 12.9258C44.8285 12.9223 44.4453 12.5215 44.4453 12.0363C44.4418 11.5406 44.8285 11.1328 45.3031 11.1328Z" fill="#353D4E"/>
<g filter="url(#filter1_i_305_5451)">
<rect y="16" width="33" height="33" rx="4" fill="#F6F6F6"/>
</g>
<rect x="0.5" y="16.5" width="32" height="32" rx="3.5" stroke="#3D3D3D" stroke-opacity="0.15"/>
<path d="M15.0105 28.8084L15.8 30.9518C15.8191 30.9998 15.8255 31.0519 15.8186 31.103C15.8117 31.1542 15.7917 31.2027 15.7605 31.2439C15.5911 31.4896 15.3952 31.716 15.1763 31.9189C15.1127 31.9689 15.0706 32.0414 15.0589 32.1214C15.0471 32.2015 15.0665 32.283 15.1131 32.3492C15.5987 33.0005 16.8579 34.5794 18.496 35.1439C18.5592 35.1647 18.6273 35.1649 18.6905 35.1443C18.7537 35.1237 18.8086 35.0835 18.8474 35.0294L19.5026 34.1571C19.5473 34.0981 19.6114 34.0566 19.6835 34.04C19.7557 34.0234 19.8313 34.0327 19.8974 34.0663L21.95 35.0926C22.0214 35.1262 22.0773 35.1856 22.1066 35.2589C22.1359 35.3321 22.1364 35.4138 22.1079 35.4873C21.8829 36.1268 21.1763 37.686 19.6645 37.4334C17.6875 37.13 15.8893 36.1152 14.6079 34.5794C13.3684 33.0321 10.921 29.0531 14.6829 28.6031C14.7525 28.5962 14.8225 28.6126 14.8818 28.6497C14.9411 28.6869 14.9864 28.7427 15.0105 28.8084Z" fill="#353D4E"/>
<path d="M17.45 42C15.7986 42.0023 14.1748 41.5766 12.7368 40.7645L8 41.9803L9.74079 38.0684C8.68852 36.5885 8.12665 34.8159 8.13421 33C8.13421 28.0382 12.3145 24 17.45 24C22.5855 24 26.7658 28.0382 26.7658 33C26.7658 37.9618 22.5855 42 17.45 42ZM12.9855 39.0671L13.2737 39.2447C14.5289 40.0194 15.975 40.4295 17.45 40.4289C21.7171 40.4289 25.1868 37.1013 25.1868 33.0079C25.1868 28.9145 21.7171 25.5789 17.45 25.5789C13.1829 25.5789 9.71316 28.9066 9.71316 33C9.71492 34.6283 10.2719 36.2073 11.2921 37.4763L11.5882 37.8513L10.1632 40.2671L12.9855 39.0671Z" fill="#353D4E"/>
<g filter="url(#filter2_i_305_5451)">
<rect x="28" y="30" width="33" height="33" rx="4" fill="#F6F6F6"/>
</g>
<rect x="28.5" y="30.5" width="32" height="32" rx="3.5" stroke="#3D3D3D" stroke-opacity="0.15"/>
<path d="M52.9487 41.2742L50.2323 53.1549C50.0272 53.9933 49.493 54.202 48.7337 53.8072L44.5945 50.9785L42.5976 52.7602C42.3764 52.9653 42.1919 53.1364 41.7657 53.1364L42.0633 49.2273L49.7341 42.7989C50.0678 42.5234 49.6614 42.3702 49.2159 42.6462L39.7327 48.1844L35.6502 46.999C34.7623 46.742 34.7462 46.1756 35.8353 45.7802L51.8036 40.0745C52.543 39.8175 53.1898 40.2272 52.9487 41.2748V41.2742Z" fill="#353D4E"/>
<defs>
<filter id="filter0_i_305_5451" x="24" y="0" width="33" height="35" filterUnits="userSpaceOnUse" color-interpolation-filters="sRGB">
<feFlood flood-opacity="0" result="BackgroundImageFix"/>
<feBlend mode="normal" in="SourceGraphic" in2="BackgroundImageFix" result="shape"/>
<feColorMatrix in="SourceAlpha" type="matrix" values="0 0 0 0 0 0 0 0 0 0 0 0 0 0 0 0 0 0 127 0" result="hardAlpha"/>
<feOffset dy="2"/>
<feGaussianBlur stdDeviation="3.5"/>
<feComposite in2="hardAlpha" operator="arithmetic" k2="-1" k3="1"/>
<feColorMatrix type="matrix" values="0 0 0 0 1 0 0 0 0 1 0 0 0 0 1 0 0 0 0.25 0"/>
<feBlend mode="normal" in2="shape" result="effect1_innerShadow_305_5451"/>
</filter>
<filter id="filter1_i_305_5451" x="0" y="16" width="33" height="35" filterUnits="userSpaceOnUse" color-interpolation-filters="sRGB">
<feFlood flood-opacity="0" result="BackgroundImageFix"/>
<feBlend mode="normal" in="SourceGraphic" in2="BackgroundImageFix" result="shape"/>
<feColorMatrix in="SourceAlpha" type="matrix" values="0 0 0 0 0 0 0 0 0 0 0 0 0 0 0 0 0 0 127 0" result="hardAlpha"/>
<feOffset dy="2"/>
<feGaussianBlur stdDeviation="3.5"/>
<feComposite in2="hardAlpha" operator="arithmetic" k2="-1" k3="1"/>
<feColorMatrix type="matrix" values="0 0 0 0 1 0 0 0 0 1 0 0 0 0 1 0 0 0 0.25 0"/>
<feBlend mode="normal" in2="shape" result="effect1_innerShadow_305_5451"/>
</filter>
<filter id="filter2_i_305_5451" x="28" y="30" width="33" height="35" filterUnits="userSpaceOnUse" color-interpolation-filters="sRGB">
<feFlood flood-opacity="0" result="BackgroundImageFix"/>
<feBlend mode="normal" in="SourceGraphic" in2="BackgroundImageFix" result="shape"/>
<feColorMatrix in="SourceAlpha" type="matrix" values="0 0 0 0 0 0 0 0 0 0 0 0 0 0 0 0 0 0 127 0" result="hardAlpha"/>
<feOffset dy="2"/>
<feGaussianBlur stdDeviation="3.5"/>
<feComposite in2="hardAlpha" operator="arithmetic" k2="-1" k3="1"/>
<feColorMatrix type="matrix" values="0 0 0 0 1 0 0 0 0 1 0 0 0 0 1 0 0 0 0.25 0"/>
<feBlend mode="normal" in2="shape" result="effect1_innerShadow_305_5451"/>
</filter>
</defs>
</svg>
