<svg width="19" height="19" viewBox="0 0 19 19" fill="none" xmlns="http://www.w3.org/2000/svg">
<path d="M8.99994 0.00276506C7.39342 0.0211736 3.93953 0.271767 2.0077 1.95407C0.570721 3.30561 0.0689967 5.30383 0.0101911 7.77472C-0.038605 10.2367 -0.0974106 14.8602 4.59765 16.1191V18.0366C4.59765 18.0366 4.56825 18.8038 5.1025 18.9612C5.76062 19.1589 6.13535 18.5686 6.76094 17.9344L7.92767 16.6821C11.1401 16.9356 13.6005 16.3513 13.8839 16.2646C14.5358 16.0669 18.2074 15.6215 18.8073 10.9974C19.4229 6.22188 18.5077 3.21297 16.8555 1.85193H16.8455C16.3469 1.41606 14.3431 0.0300809 9.86638 0.0146415C9.86638 0.0146415 9.53419 -0.00614229 8.99994 0.00276506ZM9.05499 1.3454C9.51104 1.34243 9.78818 1.36084 9.78818 1.36084C13.5774 1.37034 15.386 2.45288 15.8126 2.81749C17.2039 3.94931 17.9209 6.6619 17.396 10.6488C16.8974 14.5146 13.9196 14.7593 13.3684 14.9261C13.1338 14.9974 10.9668 15.5045 8.23671 15.3377C8.23671 15.3377 6.20354 17.6666 5.56794 18.2664C5.46722 18.3715 5.34961 18.4024 5.27454 18.3869C5.16694 18.362 5.13441 18.2355 5.14066 18.0621L5.16006 14.8798C1.17817 13.8347 1.41277 9.89111 1.45531 7.83114C1.5041 5.77116 1.91136 4.08589 3.12376 2.94457C4.75592 1.54374 7.6887 1.3549 9.05374 1.3454H9.05499ZM9.35527 3.40478C9.21827 3.40181 9.10441 3.50989 9.10441 3.63993C9.10441 3.77295 9.21827 3.87806 9.35527 3.87806C10.6096 3.85668 11.8188 4.30798 12.7178 5.13696C13.6268 5.97485 14.0697 7.10073 14.0866 8.57282C14.0866 8.70287 14.1973 8.81095 14.3375 8.81095V8.80144C14.4745 8.80144 14.5883 8.69634 14.5883 8.56629C14.6503 7.16546 14.1029 5.80442 13.0763 4.79611C12.086 3.87746 10.831 3.40418 9.35527 3.40418V3.40478ZM6.05778 3.94931C5.88199 3.92437 5.69932 3.95882 5.54605 4.04492H5.53291C5.19384 4.23376 4.87792 4.47188 4.57826 4.79017C4.34992 5.04076 4.22605 5.29432 4.19352 5.53839C4.17413 5.68387 4.18726 5.82936 4.23293 5.96831L4.2492 5.97782C4.50631 6.69515 4.84226 7.38518 5.25265 8.03482C5.78064 8.94693 6.43188 9.79135 7.18822 10.5461L7.21074 10.577L7.2464 10.6019L7.26892 10.6269L7.2952 10.6482C8.09345 11.3691 8.98304 11.9873 9.94771 12.4944C11.0487 13.0633 11.7169 13.3323 12.1179 13.444V13.4499C12.2355 13.4837 12.3425 13.4992 12.4501 13.4992C12.7923 13.4742 13.1151 13.3448 13.3691 13.1251C13.695 12.8466 13.9521 12.5407 14.1448 12.2159V12.21C14.3369 11.8668 14.2718 11.5419 13.9947 11.3222C13.441 10.8614 12.8379 10.4529 12.2023 10.1007C11.7757 9.88101 11.3421 10.014 11.1664 10.2367L10.7916 10.6851C10.5996 10.9077 10.2505 10.8769 10.2505 10.8769L10.2405 10.8828C7.6374 10.2516 6.94299 7.74978 6.94299 7.74978C6.94299 7.74978 6.91046 7.40952 7.15131 7.23613L7.62051 6.87746C7.84509 6.70406 8.00149 6.29314 7.76064 5.88755C7.39217 5.28126 6.96239 4.71238 6.47693 4.18625C6.37245 4.06273 6.22294 3.97901 6.05653 3.94813L6.05778 3.94931ZM9.78818 4.65478C9.45599 4.65478 9.45599 5.13102 9.79131 5.13102C10.6252 5.14349 11.4203 5.47128 12.0003 6.04017C12.5283 6.59361 12.8017 7.32995 12.7497 8.0752C12.7529 8.20525 12.8636 8.31035 13.0006 8.31035L13.0106 8.32282C13.1476 8.32282 13.2615 8.21475 13.2615 8.0847C13.284 7.14111 12.9749 6.34955 12.3687 5.71534C11.7594 5.08114 10.9092 4.72544 9.82384 4.65478C9.8107 4.65478 9.80132 4.65478 9.78818 4.65478ZM10.1992 5.93506C9.85699 5.92556 9.84386 6.41131 10.1829 6.42081C11.0075 6.46119 11.4078 6.85667 11.4604 7.67021C11.4635 7.80026 11.5742 7.9024 11.7081 7.9024H11.7181C11.8583 7.89646 11.969 7.78185 11.959 7.64883C11.9002 6.58826 11.2908 5.99088 10.2092 5.93565C10.2061 5.93565 10.2029 5.93565 10.1992 5.93565V5.93506Z" fill="#3D3D3D"/>
</svg>
