<svg width="18" height="18" viewBox="0 0 18 18" fill="none" xmlns="http://www.w3.org/2000/svg">
<path d="M13.679 8.07955C14.3671 7.16236 14.6598 6.6062 14.5739 6.36648C14.4682 6.0717 14.0913 6.12436 13.7278 6.17515C13.5911 6.19424 13.4563 6.21307 13.3386 6.21307H12.5367C12.5028 6.21307 12.4682 6.21166 12.4334 6.21025C12.3054 6.20505 12.1753 6.19976 12.0682 6.2642C11.9548 6.33161 11.9052 6.46201 11.8571 6.58844C11.8473 6.61423 11.8376 6.63986 11.8274 6.66475C11.7228 6.91969 11.5324 7.35386 11.3011 7.74716C10.5517 9.02025 10.2477 9.07855 10.125 9C9.8898 8.84837 9.90329 8.45084 9.91535 8.09499C9.91794 8.01881 9.92045 7.94454 9.92045 7.875C9.92045 7.58506 9.93114 7.33428 9.94033 7.11852C9.97026 6.41612 9.98437 6.08498 9.5625 5.98295M13.679 8.07955L13.599 8.01952C13.599 8.01952 13.599 8.01953 13.599 8.01953M13.679 8.07955C13.0266 8.94872 12.7127 9.27408 12.7444 9.56138C12.7675 9.77169 12.9759 9.96161 13.3722 10.3295C14.1954 11.0934 14.4084 11.4907 14.4611 11.5889C14.4657 11.5976 14.4691 11.6039 14.4716 11.608M13.679 8.07955L13.599 8.01953M13.599 8.01953C13.942 7.56235 14.1834 7.19908 14.3281 6.9226C14.4005 6.78426 14.4468 6.67108 14.4703 6.58108C14.4942 6.48939 14.4914 6.43278 14.4797 6.40021C14.4543 6.32927 14.4093 6.28917 14.345 6.26501C14.2754 6.23889 14.1824 6.2316 14.0685 6.23753C13.9657 6.2429 13.8554 6.2583 13.7411 6.27426C13.7296 6.27586 13.7182 6.27745 13.7067 6.27905C13.583 6.29623 13.4543 6.31307 13.3386 6.31307H12.5367C12.5006 6.31307 12.4636 6.31156 12.429 6.31015C12.4231 6.30991 12.4174 6.30968 12.4117 6.30946C12.3711 6.30785 12.3333 6.30671 12.2971 6.30785C12.2243 6.31016 12.1667 6.32164 12.1197 6.34989L12.1193 6.35016C12.0745 6.37676 12.0403 6.42084 12.0087 6.48434C11.9872 6.52767 11.9709 6.57051 11.9531 6.61752C11.943 6.64428 11.9323 6.67239 11.9199 6.70271C11.8146 6.95936 11.6222 7.39856 11.3873 7.79785L11.3873 7.79789C11.0113 8.43655 10.7415 8.78061 10.5444 8.9553C10.4456 9.04276 10.3585 9.09371 10.2793 9.11344C10.1958 9.13425 10.1255 9.11902 10.0711 9.08423L10.0708 9.08405C9.88466 8.96404 9.8316 8.73584 9.81592 8.52372C9.8078 8.41391 9.80915 8.29864 9.8123 8.18841C9.81326 8.15481 9.81438 8.12191 9.81547 8.0897C9.81803 8.01433 9.82045 7.94276 9.82045 7.875C9.82045 7.58288 9.83122 7.33018 9.84041 7.11455C9.841 7.10067 9.84159 7.08694 9.84216 7.07337C9.85175 6.84708 9.85833 6.66755 9.8485 6.5231C9.83864 6.37812 9.81284 6.28286 9.76842 6.21763C9.72666 6.1563 9.65999 6.10943 9.53906 6.08017M13.599 8.01953C13.4696 8.19191 13.3523 8.34451 13.2482 8.47988C13.1276 8.63675 13.0247 8.77049 12.9416 8.88505C12.7876 9.09723 12.6833 9.26616 12.6522 9.42318C12.6183 9.59373 12.6723 9.73548 12.7865 9.8835C12.892 10.0203 13.059 10.1754 13.277 10.3777L13.3041 10.4028L13.3041 10.4029C13.7487 10.8153 14.0119 11.1182 14.1669 11.3222C14.294 11.4897 14.3472 11.5884 14.3728 11.6359C14.3783 11.6461 14.3825 11.6539 14.3859 11.6596M9.53906 6.08017L9.5625 5.98295M9.53906 6.08017C9.53904 6.08016 9.53902 6.08016 9.53899 6.08015L9.5625 5.98295M9.53906 6.08017C9.36463 6.03812 9.23184 6.01109 8.76884 6.00624L8.76989 5.90625M9.5625 5.98295C9.37923 5.93877 9.2387 5.91116 8.76989 5.90625M8.76989 5.90625L8.76893 6.00625C8.46921 6.00339 8.19375 6.00642 7.95841 6.02733C7.72112 6.04842 7.53474 6.08699 7.40774 6.14941L7.36364 6.05966M8.76989 5.90625L7.69992 6.56298M7.36364 6.05966C7.17218 6.15375 7.01795 6.3542 7.10795 6.36648M7.36364 6.05966L6.15734 10.9506C7.08063 11.9098 8.09559 12.1201 8.58003 12.1637C8.72615 12.1768 8.87122 12.1753 9.02211 12.1738C9.07207 12.1732 9.12266 12.1727 9.17414 12.1727H9.19803C9.23875 12.1727 9.27775 12.1737 9.31558 12.1747C9.39311 12.1767 9.46573 12.1786 9.5382 12.1714C9.64135 12.1612 9.71759 12.1339 9.77039 12.0769L9.77045 12.0769C9.81806 12.0256 9.83509 11.9534 9.83802 11.8481C9.83904 11.8112 9.83837 11.7747 9.83765 11.7356C9.83733 11.7185 9.83701 11.7009 9.83681 11.6826C9.8362 11.6249 9.83697 11.5625 9.84561 11.5012C9.86518 11.3624 9.90074 11.1963 9.96681 11.0523C10.0322 10.9097 10.1355 10.7718 10.2994 10.72M7.36364 6.05966L7.40774 6.14941C7.33581 6.18476 7.26929 6.23842 7.22534 6.28651M7.10795 6.36648C7.21923 6.3812 7.48595 6.44052 7.61932 6.62216M7.10795 6.36648L7.12147 6.26739C7.13028 6.2686 7.15533 6.27554 7.17145 6.30294C7.1854 6.32666 7.18099 6.34664 7.18072 6.34789C7.18067 6.34811 7.18074 6.34796 7.18097 6.34744C7.18226 6.34459 7.18856 6.3307 7.20803 6.3066C7.21331 6.30006 7.2191 6.29334 7.22534 6.28651M7.10795 6.36648L7.12108 6.26734C7.1486 6.27098 7.18448 6.27704 7.22534 6.28651M7.61932 6.62216C7.87583 6.97107 7.83733 7.44104 7.80056 7.88982C7.79245 7.98881 7.78443 8.08676 7.77967 8.18216C7.76105 8.55564 7.70183 8.93847 7.54261 9.02557C7.31598 9.14911 7.00936 8.87605 6.34091 7.72159M7.61932 6.62216L7.69992 6.56298M7.61932 6.62216L7.69989 6.56293C7.6999 6.56294 7.69991 6.56296 7.69992 6.56298M6.34091 7.72159C6.12842 7.35493 5.95341 6.97129 5.85106 6.73259C5.83718 6.70021 5.82423 6.66678 5.81124 6.63321C5.76083 6.50297 5.7096 6.37063 5.59943 6.28977C5.45711 6.18518 5.26831 6.18847 5.09058 6.19156C5.08243 6.1917 5.0743 6.19185 5.0662 6.19198L3.96942 6.20967C3.94112 6.21012 3.91267 6.21004 3.88419 6.20996C3.77119 6.20964 3.65764 6.20932 3.55037 6.24254C3.50144 6.2577 3.45515 6.28063 3.42614 6.31534C3.31763 6.44419 3.40638 6.62749 3.48465 6.78915C3.49673 6.81408 3.50855 6.8385 3.51937 6.86213C3.86584 7.61921 4.92438 9.81151 6.08523 11.0199M6.34091 7.72159L6.25439 7.77173M6.34091 7.72159L6.25437 7.7717C6.03904 7.40014 5.86225 7.01244 5.75915 6.772C5.74449 6.73781 5.73076 6.70234 5.71775 6.66871C5.71495 6.66148 5.71219 6.65434 5.70945 6.64731C5.69361 6.60658 5.67836 6.56857 5.66146 6.53294C5.62753 6.46143 5.59038 6.40717 5.54026 6.37039L5.54022 6.37035C5.4845 6.32941 5.41595 6.30796 5.33418 6.29801C5.25786 6.28872 5.17747 6.29009 5.09126 6.29157C5.08349 6.2917 5.07567 6.29184 5.06781 6.29196L3.97103 6.30965C3.93796 6.31019 3.90641 6.31014 3.8761 6.31009C3.76542 6.30993 3.67127 6.30978 3.57995 6.33807C3.53807 6.35104 3.51362 6.3666 3.50286 6.37948L3.50263 6.37976C3.47262 6.41539 3.46593 6.4653 3.49121 6.54943C3.5099 6.61161 3.53955 6.67286 3.57135 6.73852C3.58417 6.76502 3.59735 6.79223 3.6103 6.82052C3.95753 7.57926 5.00989 9.75613 6.15728 10.9505M6.08523 11.0199C7.03022 12.0017 8.07093 12.2183 8.57107 12.2633C8.72264 12.2769 8.87472 12.2753 9.02688 12.2737C9.07596 12.2732 9.12505 12.2727 9.17414 12.2727H9.19803C9.23304 12.2727 9.26901 12.2736 9.30539 12.2746C9.50374 12.2796 9.71405 12.2849 9.84375 12.1449C9.94323 12.0377 9.94042 11.885 9.9376 11.7312C9.93625 11.6579 9.93489 11.5843 9.94463 11.5152C9.98257 11.246 10.0799 10.8943 10.3295 10.8153M6.08523 11.0199L6.15728 10.9505M6.08523 11.0199L6.15728 10.9505M10.3295 10.8153C10.5785 10.7365 10.8742 11.0725 11.1932 11.4349C11.4005 11.6704 11.6176 11.917 11.8381 12.0682C12.2096 12.3233 12.6814 12.3071 13.1398 12.2913C13.2177 12.2886 13.2953 12.286 13.3719 12.2846L13.7464 12.2782C13.7728 12.2777 13.7994 12.2775 13.8261 12.2773C14.0119 12.2757 14.2013 12.2742 14.3666 12.1926C14.5348 12.1095 14.673 11.9422 14.4716 11.608M10.3295 10.8153L10.2993 10.72C10.2994 10.72 10.2994 10.72 10.2994 10.72M10.3295 10.8153L10.2994 10.72M14.4716 11.608L14.3859 11.6596M14.4716 11.608L14.3861 11.6598C14.386 11.6597 14.386 11.6596 14.3859 11.6596M14.3859 11.6596C14.4784 11.8131 14.4807 11.9076 14.4625 11.9637C14.4439 12.0213 14.3945 12.0672 14.3223 12.1029C14.1791 12.1736 14.0149 12.1753 13.8265 12.1772C13.7997 12.1774 13.7724 12.1777 13.7447 12.1782L13.3701 12.1846C13.2897 12.186 13.2099 12.1888 13.1308 12.1915C12.9428 12.198 12.7584 12.2043 12.5771 12.192C12.3229 12.1747 12.0914 12.1208 11.8947 11.9857L11.8946 11.9857C11.764 11.8961 11.6314 11.7683 11.4972 11.6241C11.4191 11.5402 11.3446 11.4556 11.2704 11.3712C11.2146 11.3078 11.159 11.2446 11.102 11.1818C10.9738 11.0408 10.844 10.9086 10.7169 10.8202C10.5918 10.7331 10.4471 10.6732 10.2994 10.72M6.15728 10.9505L6.25439 7.77173M6.25439 7.77173C6.58876 8.3492 6.83761 8.71538 7.03518 8.92195C7.13383 9.02509 7.2268 9.09617 7.31857 9.13009C7.41594 9.16607 7.50774 9.15847 7.59048 9.11337L7.59061 9.1133C7.65464 9.07827 7.69992 9.0188 7.73281 8.95591C7.76621 8.89206 7.79148 8.81579 7.81107 8.73474C7.85026 8.57254 7.87012 8.37628 7.87955 8.18714C7.88396 8.09856 7.89169 8.00378 7.89964 7.90617C7.9142 7.72746 7.92953 7.53928 7.92676 7.36232C7.92238 7.08267 7.87429 6.80017 7.69992 6.56298M6.25439 7.77173L7.69992 6.56298M7.69992 6.56298C7.618 6.4514 7.49912 6.38205 7.39288 6.33904C7.3337 6.31508 7.27574 6.2982 7.22534 6.28651M0.1 3.34943C0.1 1.56985 1.56985 0.1 3.34943 0.1H14.6506C16.4301 0.1 17.9 1.56985 17.9 3.34943V14.6506C17.9 16.4301 16.4301 17.9 14.6506 17.9H3.34943C1.56985 17.9 0.1 16.4301 0.1 14.6506V3.34943ZM14.6506 1.53636H3.34943C2.34392 1.53636 1.53636 2.34392 1.53636 3.34943V14.6506C1.53636 15.6561 2.34392 16.4636 3.34943 16.4636H14.6506C15.6561 16.4636 16.4636 15.6561 16.4636 14.6506V3.34943C16.4636 2.34392 15.6561 1.53636 14.6506 1.53636Z" fill="#3D3D3D" stroke="white" stroke-width="0.2"/>
</svg>
