<svg width="30" height="30" viewBox="0 0 30 30" fill="none" xmlns="http://www.w3.org/2000/svg">
<circle r="15" transform="matrix(0 -1 -1 0 15 15)" fill="white"/>
<path d="M14.1078 18.6542C14.0229 18.654 13.9389 18.637 13.8611 18.6044C13.7833 18.5718 13.7134 18.5243 13.6557 18.4648L10.6457 15.4038C10.5331 15.2891 10.4729 15.1365 10.4781 14.9794C10.4807 14.9016 10.4993 14.825 10.5328 14.7541C10.5663 14.6832 10.6142 14.6193 10.6735 14.566C10.7329 14.5127 10.8027 14.4712 10.8788 14.4437C10.955 14.4162 11.0361 14.4033 11.1175 14.4058C11.2818 14.4108 11.4374 14.478 11.5499 14.5926L14.1016 17.1918L19.3102 11.7448C19.3631 11.6819 19.4289 11.6299 19.5035 11.5922C19.5781 11.5544 19.66 11.5317 19.7441 11.5253C19.8283 11.5189 19.9129 11.529 19.9928 11.5551C20.0727 11.5811 20.1462 11.6224 20.2088 11.6766C20.2714 11.7308 20.3217 11.7966 20.3567 11.87C20.3917 11.9435 20.4107 12.023 20.4124 12.1037C20.414 12.1843 20.3985 12.2645 20.3666 12.3392C20.3347 12.4139 20.2871 12.4816 20.2269 12.5382L14.5661 18.4588C14.5089 18.5194 14.4392 18.5681 14.3614 18.6017C14.2836 18.6353 14.1993 18.6532 14.114 18.6542H14.1078Z" fill="#9AC485"/>
</svg>
