<svg width="19" height="18" viewBox="0 0 19 18" fill="none" xmlns="http://www.w3.org/2000/svg">
<path d="M7.01051 4.8074L7.79999 6.95082C7.8191 6.99879 7.82551 7.05088 7.8186 7.10205C7.81168 7.15323 7.79168 7.20175 7.76051 7.24292C7.59109 7.48865 7.39518 7.715 7.1763 7.91792C7.11265 7.96789 7.07061 8.04039 7.05886 8.12045C7.04711 8.20051 7.06654 8.28203 7.11314 8.34819C7.59867 8.9995 8.85788 10.5784 10.496 11.1429C10.5592 11.1638 10.6273 11.1639 10.6905 11.1433C10.7537 11.1227 10.8086 11.0825 10.8474 11.0284L11.5026 10.1561C11.5473 10.0971 11.6114 10.0557 11.6835 10.0391C11.7557 10.0225 11.8313 10.0318 11.8974 10.0653L13.95 11.0916C14.0214 11.1252 14.0773 11.1846 14.1066 11.2579C14.1359 11.3311 14.1364 11.4128 14.1079 11.4863C13.8829 12.1258 13.1763 13.685 11.6645 13.4324C9.68747 13.1291 7.8893 12.1142 6.60788 10.5784C5.36841 9.03108 2.92104 5.05214 6.68288 4.60214C6.75252 4.59521 6.82248 4.61162 6.88178 4.64877C6.94108 4.68592 6.98636 4.74172 7.01051 4.8074Z" fill="#353D4E"/>
<path d="M9.45 18C7.79858 18.0023 6.17475 17.5766 4.73684 16.7645L0 17.9803L1.74079 14.0684C0.688519 12.5885 0.126651 10.8159 0.134211 9C0.134211 4.03816 4.31447 0 9.45 0C14.5855 0 18.7658 4.03816 18.7658 9C18.7658 13.9618 14.5855 18 9.45 18ZM4.98552 15.0671L5.27368 15.2447C6.52889 16.0194 7.97496 16.4295 9.45 16.4289C13.7171 16.4289 17.1868 13.1013 17.1868 9.00789C17.1868 4.91447 13.7171 1.57895 9.45 1.57895C5.18289 1.57895 1.71316 4.90658 1.71316 9C1.71492 10.6283 2.27188 12.2073 3.2921 13.4763L3.58816 13.8513L2.16316 16.2671L4.98552 15.0671Z" fill="#353D4E"/>
</svg>
