<svg width="21" height="17" viewBox="0 0 21 17" fill="none" xmlns="http://www.w3.org/2000/svg">
<path d="M16.8 0H4.2C1.88441 0 0 2.08015 0 4.63636V12.3636C0 14.9198 1.88441 17 4.2 17H16.8C19.1156 17 21 14.9198 21 12.3636V4.63636C21 2.08015 19.1156 0 16.8 0ZM20.0667 12.3636C20.0667 14.3521 18.6013 15.9697 16.8 15.9697H4.2C2.39867 15.9697 0.933333 14.3521 0.933333 12.3636V4.63636C0.933333 2.64788 2.39867 1.0303 4.2 1.0303H16.8C18.6013 1.0303 20.0667 2.64788 20.0667 4.63636V12.3636ZM7.46667 12.3117C7.46667 12.5485 7.72818 12.692 7.92789 12.5647L13.9087 8.75346C14.0937 8.63555 14.0937 8.36541 13.9087 8.24748L7.92792 4.43529C7.72821 4.308 7.46667 4.45144 7.46667 4.68827V12.3117ZM8.4 6.47281C8.4 6.23597 8.66156 6.09253 8.86126 6.21983L12.0421 8.24751C12.2271 8.36544 12.2271 8.63558 12.042 8.75348L8.86121 10.7803C8.66151 10.9076 8.4 10.7641 8.4 10.5273V6.47281Z" fill="#3D3D3D"/>
</svg>
