<svg width="26" height="26" viewBox="0 0 26 26" fill="none" xmlns="http://www.w3.org/2000/svg">
<path d="M15.1868 0.335938C9.65825 0.335938 5.17935 4.81485 5.17935 10.3434C5.17935 12.7332 6.015 14.9242 7.41116 16.6465L0.53229 23.5254C0.124653 23.933 0.124653 24.5903 0.53229 24.998C0.939927 25.4056 1.59724 25.4056 2.00488 24.998L8.88374 18.1191C10.606 19.5152 12.7971 20.3509 15.1868 20.3509C20.7154 20.3509 25.1943 15.872 25.1943 10.3434C25.1943 4.81485 20.7103 0.335938 15.1868 0.335938ZM15.1868 18.2719C10.8098 18.2719 7.25829 14.7204 7.25829 10.3434C7.25829 5.96642 10.8098 2.41488 15.1868 2.41488C19.5638 2.41488 23.1154 5.96642 23.1154 10.3434C23.1154 14.7204 19.5638 18.2719 15.1868 18.2719Z" fill="white"/>
</svg>
